<mxfile host="65bd71144e">
    <diagram id="QGNRFg8jejz25i1b-yu3" name="Page-1">
        <mxGraphModel dx="2084" dy="1176" grid="1" gridSize="10" guides="1" tooltips="1" connect="1" arrows="1" fold="1" page="1" pageScale="1" pageWidth="850" pageHeight="1100" math="0" shadow="0">
            <root>
                <mxCell id="0"/>
                <mxCell id="1" parent="0"/>
                <mxCell id="4" value="" style="edgeStyle=none;html=1;fillColor=#0000CC;strokeColor=#00FF00;" edge="1" parent="1" source="2" target="3">
                    <mxGeometry relative="1" as="geometry"/>
                </mxCell>
                <mxCell id="2" value="Start" style="ellipse;whiteSpace=wrap;html=1;fillColor=#0000CC;" vertex="1" parent="1">
                    <mxGeometry x="240" y="10" width="120" height="80" as="geometry"/>
                </mxCell>
                <mxCell id="6" value="" style="edgeStyle=none;html=1;fillColor=#0000CC;strokeColor=#00FF00;" edge="1" parent="1" source="3" target="5">
                    <mxGeometry relative="1" as="geometry"/>
                </mxCell>
                <mxCell id="3" value="Initialize Variables" style="whiteSpace=wrap;html=1;fillColor=#0000CC;" vertex="1" parent="1">
                    <mxGeometry x="240" y="110" width="120" height="60" as="geometry"/>
                </mxCell>
                <mxCell id="8" value="" style="edgeStyle=none;html=1;fillColor=#0000CC;strokeColor=#00FF00;" edge="1" parent="1" source="5" target="7">
                    <mxGeometry relative="1" as="geometry"/>
                </mxCell>
                <mxCell id="5" value="Call 'findMaxSum' function" style="whiteSpace=wrap;html=1;fillColor=#0000CC;" vertex="1" parent="1">
                    <mxGeometry x="240" y="200" width="120" height="60" as="geometry"/>
                </mxCell>
                <mxCell id="10" value="" style="edgeStyle=none;html=1;fillColor=#0000CC;strokeColor=#00FF00;" edge="1" parent="1" source="7" target="9">
                    <mxGeometry relative="1" as="geometry"/>
                </mxCell>
                <mxCell id="7" value="Output maxSumRow elements&lt;br&gt;&lt;br&gt;Loop through the 'result' array" style="whiteSpace=wrap;html=1;fillColor=#0000CC;" vertex="1" parent="1">
                    <mxGeometry x="240" y="280" width="120" height="70" as="geometry"/>
                </mxCell>
                <mxCell id="12" value="" style="edgeStyle=none;html=1;fillColor=#0000CC;strokeColor=#00FF00;" edge="1" parent="1" source="9" target="11">
                    <mxGeometry relative="1" as="geometry"/>
                </mxCell>
                <mxCell id="9" value="Call 'findMaxElm' function" style="whiteSpace=wrap;html=1;fillColor=#0000CC;" vertex="1" parent="1">
                    <mxGeometry x="240" y="380" width="120" height="60" as="geometry"/>
                </mxCell>
                <mxCell id="14" value="" style="edgeStyle=none;html=1;fillColor=#0000CC;strokeColor=#00FF00;" edge="1" parent="1" source="11" target="13">
                    <mxGeometry relative="1" as="geometry"/>
                </mxCell>
                <mxCell id="11" value="Output max elements of each row" style="whiteSpace=wrap;html=1;fillColor=#0000CC;" vertex="1" parent="1">
                    <mxGeometry x="240" y="470" width="120" height="60" as="geometry"/>
                </mxCell>
                <mxCell id="16" value="" style="edgeStyle=none;html=1;fillColor=#0000CC;strokeColor=#00FF00;" edge="1" parent="1" source="13" target="15">
                    <mxGeometry relative="1" as="geometry"/>
                </mxCell>
                <mxCell id="13" value="Call 'findMaxVal' fuction" style="whiteSpace=wrap;html=1;fillColor=#0000CC;" vertex="1" parent="1">
                    <mxGeometry x="240" y="570" width="120" height="60" as="geometry"/>
                </mxCell>
                <mxCell id="18" value="" style="edgeStyle=none;html=1;fillColor=#0000CC;strokeColor=#00FF00;" edge="1" parent="1" source="15" target="17">
                    <mxGeometry relative="1" as="geometry"/>
                </mxCell>
                <mxCell id="15" value="Output the row containing the max value" style="whiteSpace=wrap;html=1;fillColor=#0000CC;" vertex="1" parent="1">
                    <mxGeometry x="240" y="650" width="120" height="60" as="geometry"/>
                </mxCell>
                <mxCell id="17" value="End" style="ellipse;whiteSpace=wrap;html=1;fillColor=#0000CC;" vertex="1" parent="1">
                    <mxGeometry x="260" y="780" width="80" height="80" as="geometry"/>
                </mxCell>
            </root>
        </mxGraphModel>
    </diagram>
</mxfile>